<svg id="mxm_logo" xmlns="http://www.w3.org/2000/svg" xmlns:xlink="http://www.w3.org/1999/xlink" width="193.3" height="44.023" viewBox="0 0 193.3 44.023">
  <defs>
    <linearGradient id="linear-gradient" x1="0.5" x2="0.5" y2="0.986" gradientUnits="objectBoundingBox">
      <stop offset="0" stop-color="#f63"/>
      <stop offset="1" stop-color="#ff0e83"/>
    </linearGradient>
  </defs>
  <g id="icon">
    <circle id="bg" cx="22.012" cy="22.012" r="22.012" fill="url(#linear-gradient)"/>
    <g id="butterfly" transform="translate(10.244 11.091)">
      <path id="Imported-Layers" d="M19.642.568,11.789,6.457l-.068.051L3.726.62A2.4,2.4,0,0,0,2.271.138,2.141,2.141,0,0,0,0,2.131V6.6L0,19.872a2.142,2.142,0,0,0,2.269,1.993,2.4,2.4,0,0,0,1.455-.482l8-5.94c3.979,3,7.919,5.94,7.919,5.94a2.4,2.4,0,0,0,1.455.482,2.214,2.214,0,0,0,2.347-1.993V2.041A2.183,2.183,0,0,0,21.1.086,2.4,2.4,0,0,0,19.642.568Z" transform="translate(0 -0.008)" fill="rgba(255,255,255,0.7)" fill-rule="evenodd"/>
      <path id="Fill-3-Copy" d="M5.319,10.4l5.867,4.459,5.83-4.46-5.83-4.475Z" transform="translate(0.535 0.579)" fill="rgba(255,255,255,0.6)" fill-rule="evenodd"/>
      <path id="Fill-4-Copy" d="M0,5.987v8.807l5.851-4.4L0,5.987" transform="translate(0 0.586)" fill="rgba(255,255,255,0.6)" fill-rule="evenodd"/>
      <path id="Fill-5-Copy" d="M15.947,10.4l5.891,4.46V5.921L15.947,10.4" transform="translate(1.604 0.579)" fill="rgba(255,255,255,0.6)" fill-rule="evenodd"/>
      <path id="Fill-6-Copy" d="M18.464.652,10.65,6.515l5.83,4.475,5.891-4.475V2.048A2.3,2.3,0,0,0,18.464.652Z" transform="translate(1.071 -0.015)" fill="#fff" fill-rule="evenodd"/>
      <path id="Fill-7-Copy" d="M3.734.583C2.267-.521,0,.4,0,2.094V6.579l5.849,4.4,5.867-4.476Z" transform="translate(0 -0.006)" fill="#fff" fill-rule="evenodd"/>
    </g>
  </g>
  <path id="musixmatch" d="M55.736,20.483v7.252h2.87V20.518c0-1.949,1.063-3.26,2.846-3.26,1.984,0,2.764,1.358,2.764,3.189v7.287H67.1V19.762c0-2.929-1.429-5.232-4.712-5.232A5.56,5.56,0,0,0,57.9,16.644a4.252,4.252,0,0,0-3.98-2.114,4.8,4.8,0,0,0-3.862,2.031V14.825H47.244V27.734h2.882V20.542c0-1.949,1.063-3.283,2.846-3.283,1.984,0,2.764,1.394,2.764,3.224Zm17.085,1.571V14.825H69.939v7.937c0,2.929,1.606,5.244,4.842,5.244A4.873,4.873,0,0,0,78.726,26v1.736h2.811V14.825H78.655v7.181a2.953,2.953,0,0,1-2.988,3.272c-1.984,0-2.846-1.394-2.846-3.224Zm16.058,5.905c3.213,0,4.713-2.031,4.713-4.028,0-1.842-1.3-3.378-3.661-3.886l-1.772-.378c-.72-.154-1.3-.579-1.3-1.335a1.638,1.638,0,0,1,1.772-1.465,2.217,2.217,0,0,1,2.339,1.807L93.4,17.99c-.224-1.24-1.382-3.449-4.772-3.449a4.311,4.311,0,0,0-4.559,4.039c0,1.689,1.063,3.153,3.413,3.709l1.654.39c1.087.26,1.535.72,1.535,1.417,0,.9-.65,1.512-1.842,1.512a2.528,2.528,0,0,1-2.587-2.055l-2.468.65c.165,1.441,1.595,3.756,5.1,3.756Zm6.585-17.327a1.9,1.9,0,1,1,1.89,1.89,1.888,1.888,0,0,1-1.89-1.89Zm.461,17.1V14.825h2.882V27.734Zm7.707,0,3.247-4.5,3.26,4.5h3.307l-4.89-6.579,4.737-6.331h-3.249L106.915,19.1l-3.095-4.276h-3.3l4.724,6.378-4.9,6.531Zm19.861-7.252v7.252h2.87V20.518c0-1.949,1.062-3.26,2.846-3.26,1.984,0,2.764,1.358,2.764,3.189v7.287h2.882V19.762c0-2.929-1.43-5.232-4.713-5.232a5.56,5.56,0,0,0-4.488,2.114,4.253,4.253,0,0,0-3.981-2.114,4.8,4.8,0,0,0-3.862,2.031V14.825H115V27.734h2.881V20.542c0-1.949,1.063-3.283,2.847-3.283,1.984,0,2.764,1.394,2.764,3.224Zm13.471.779a6.508,6.508,0,0,0,6.354,6.673,5.466,5.466,0,0,0,4.288-2.161v1.961h2.846V14.825H147.6V16.7a5.346,5.346,0,0,0-4.216-2.138,6.515,6.515,0,0,0-6.425,6.7Zm10.654,0a3.878,3.878,0,1,1-7.748,0,3.88,3.88,0,1,1,7.748,0Zm13.258-3.85V14.825h-3.283v-4h-2.87v4h-2.5v2.587h2.5v6.319c0,3.142,1.43,4.122,3.969,4.122a7.856,7.856,0,0,0,2.067-.26V25.148a9.423,9.423,0,0,1-1.17.094c-1.441,0-2-.555-2-1.665V17.412Zm7.92,10.547a6.12,6.12,0,0,0,6.1-4.228l-2.634-.85a3.416,3.416,0,0,1-3.4,2.457,3.862,3.862,0,0,1-3.827-4.134,3.8,3.8,0,0,1,3.8-4.039,3.33,3.33,0,0,1,3.379,2.409l2.609-.85a5.925,5.925,0,0,0-5.976-4.169,6.67,6.67,0,0,0-6.767,6.7,6.6,6.6,0,0,0,6.72,6.709Zm16.873-7.453v7.228h2.881V19.786c0-2.941-1.558-5.232-4.843-5.232a4.879,4.879,0,0,0-3.874,1.9V8.034H176.95v19.7h2.881V20.542a2.943,2.943,0,0,1,2.989-3.26c1.983,0,2.846,1.382,2.846,3.224Z" transform="translate(4.752 0.808)" fill="#2c3e50" fill-rule="evenodd"/>
</svg>
